<svg xmlns="http://www.w3.org/2000/svg" viewBox="0 0 512 512"><path fill="#f7df1e" d="M0 0h512v512H0z"/><path d="M134.6 427.9l39.2-23.7c7.6 13.4 14.4 24.7 30.9 24.7 15.8 0 25.8-6.2 25.8-30.2V235.1h48.1v164.3c0 49.8-29.2 72.5-71.8 72.5-38.5 0-60.8-20-72.2-44M304.8 422.7L344 400c10.3 16.8 23.7 29.2 47.4 29.2 19.9 0 32.6-10 32.6-23.7 0-16.5-13.1-22.3-35.1-32l-12-5.2c-34.7-14.8-57.7-33.3-57.7-72.5 0-36.1 27.5-63.6 70.5-63.6 30.6 0 52.6 10.7 68.4 38.5l-37.5 24.1c-8.2-14.8-17.2-20.6-30.9-20.6-14.1 0-23 8.9-23 20.6 0 14.4 8.9 20.3 29.6 29.2l12 5.2c40.9 17.5 63.9 35.4 63.9 75.6 0 43.3-34 67-79.7 67-44.8.1-73.6-21.3-87.7-49.1"/></svg>