<svg xmlns="http://www.w3.org/2000/svg" viewBox="0 0 500 500"><path d="M430 245.5l-15.3-9.5c-.1-1.5-.3-3-.4-4.5l13.2-12.3c1.3-1.2 1.9-3.1 1.6-4.9-.4-1.8-1.6-3.3-3.3-3.9l-16.8-6.3c-.4-1.5-.9-2.9-1.3-4.3l10.5-14.6c1.1-1.5 1.3-3.4.6-5.1-.7-1.7-2.2-2.9-4-3.2L397 174c-.7-1.3-1.4-2.7-2.1-4l7.5-16.4c.8-1.7.6-3.6-.4-5.1-1-1.5-2.7-2.4-4.6-2.3l-18 .6c-.9-1.2-1.9-2.3-2.8-3.5l4.1-17.5c.4-1.8-.1-3.6-1.4-4.9-1.3-1.3-3.2-1.8-4.9-1.4l-17.5 4.1c-1.1-1-2.3-1.9-3.5-2.8l.6-18c.1-1.8-.8-3.6-2.3-4.6-1.5-1-3.5-1.2-5.1-.4l-16.4 7.5c-1.3-.7-2.6-1.4-4-2.1L323 85.4c-.3-1.8-1.5-3.3-3.2-4-1.7-.7-3.6-.5-5.1.6l-14.6 10.5c-1.4-.5-2.9-.9-4.3-1.3l-6.3-16.8c-.6-1.7-2.1-3-3.9-3.3-1.8-.4-3.6.2-4.9 1.6l-12.3 13.2c-1.5-.2-3-.3-4.5-.4L254.5 70c-1-1.6-2.7-2.5-4.5-2.5-1.8 0-3.5.9-4.5 2.5L236 85.3c-1.5.1-3 .3-4.5.4l-12.3-13.2c-1.2-1.3-3.1-1.9-4.9-1.6-1.8.4-3.3 1.6-3.9 3.3L204.1 91c-1.5.4-2.9.9-4.3 1.3L185.3 82c-1.5-1.1-3.4-1.3-5.1-.6-1.7.7-2.9 2.2-3.2 4l-2.9 17.8c-1.3.7-2.7 1.4-4 2.1l-16.4-7.5c-1.7-.8-3.6-.6-5.1.4-1.5 1-2.4 2.7-2.3 4.6l.6 18c-1.2.9-2.3 1.9-3.5 2.8l-17.5-4.1c-1.8-.4-3.7.1-4.9 1.4-1.3 1.3-1.8 3.2-1.4 4.9l4.1 17.5c-1 1.1-1.9 2.3-2.8 3.5l-18-.6c-1.8-.1-3.6.8-4.6 2.3-1 1.5-1.2 3.5-.4 5.1l7.5 16.4c-.7 1.3-1.4 2.6-2.1 4l-17.9 3c-1.8.3-3.3 1.5-4 3.2-.7 1.7-.5 3.6.6 5.1l10.5 14.6c-.5 1.4-.9 2.9-1.3 4.3l-16.8 6.3c-1.7.6-3 2.1-3.3 3.9-.4 1.8.2 3.6 1.6 4.9l13.2 12.3c-.2 1.5-.3 3-.4 4.5L70 245.5c-1.6 1-2.5 2.7-2.5 4.5 0 1.8.9 3.5 2.5 4.5l15.3 9.5c.1 1.5.3 3 .4 4.5l-13.2 12.3c-1.3 1.2-1.9 3.1-1.6 4.9.4 1.8 1.6 3.3 3.3 3.9l16.8 6.3c.4 1.5.9 2.9 1.3 4.3L82 314.7c-1.1 1.5-1.3 3.4-.6 5.1.7 1.7 2.2 2.9 4 3.2l17.7 2.9c.7 1.3 1.4 2.7 2.1 4l-7.5 16.4c-.8 1.7-.6 3.6.4 5.1 1 1.5 2.8 2.4 4.6 2.3l18-.6c.9 1.2 1.9 2.3 2.8 3.5l-4.1 17.6c-.4 1.8.1 3.6 1.4 4.9 1.3 1.3 3.2 1.8 4.9 1.4l17.5-4.1c1.1 1 2.3 1.9 3.5 2.8l-.6 18c-.1 1.8.8 3.6 2.3 4.6 1.5 1 3.5 1.2 5.1.4l16.4-7.5c1.3.7 2.6 1.4 4 2.1l2.9 17.7c.3 1.8 1.5 3.3 3.2 4 1.7.7 3.6.5 5.1-.6l14.6-10.5c1.4.5 2.9.9 4.3 1.3l6.3 16.8c.6 1.7 2.1 3 3.9 3.3 1.8.4 3.6-.2 4.9-1.6l12.3-13.2c1.5.2 3 .3 4.5.4l9.5 15.3c1 1.5 2.7 2.5 4.5 2.5 1.8 0 3.5-.9 4.5-2.5l9.5-15.3c1.5-.1 3-.3 4.5-.4l12.3 13.2c1.2 1.3 3.1 1.9 4.9 1.6 1.8-.4 3.3-1.6 3.9-3.3l6.3-16.8c1.5-.4 2.9-.9 4.3-1.3l14.6 10.5c1.5 1.1 3.4 1.3 5.1.6 1.7-.7 2.9-2.2 3.2-4l2.9-17.7c1.3-.7 2.7-1.4 4-2.1l16.4 7.5c1.7.8 3.6.6 5.1-.4 1.5-1 2.4-2.7 2.3-4.6l-.6-18c1.2-.9 2.3-1.9 3.5-2.8l17.5 4.1c1.8.4 3.7-.1 4.9-1.4 1.3-1.3 1.8-3.2 1.4-4.9l-4.1-17.6c1-1.1 1.9-2.3 2.8-3.5l18 .6c1.8.1 3.6-.8 4.6-2.3 1-1.5 1.2-3.5.4-5.1l-7.5-16.4c.7-1.3 1.4-2.6 2.1-4l17.8-2.9c1.8-.3 3.3-1.5 4-3.2.7-1.7.5-3.6-.6-5.1l-10.5-14.6c.5-1.4.9-2.9 1.3-4.3l16.8-6.3c1.7-.6 3-2.1 3.3-3.9.4-1.8-.2-3.6-1.6-4.9L414 268.4c.2-1.5.3-3 .4-4.5l15.3-9.5c1.6-1 2.5-2.7 2.5-4.5.3-1.7-.6-3.4-2.2-4.4zM327.4 372.6c-5.9-1.3-9.6-7-8.3-12.9 1.3-5.9 7-9.6 12.9-8.3 5.9 1.3 9.6 7 8.3 12.9-1.2 5.9-7 9.6-12.9 8.3zm-5.2-35.2c-5.3-1.1-10.6 2.3-11.7 7.6l-5.4 25.4c-16.8 7.6-35.4 11.9-55.1 11.9-20.1 0-39.1-4.4-56.2-12.4l-5.4-25.4c-1.1-5.3-6.4-8.7-11.7-7.6l-22.4 4.8c-4.2-4.3-8-8.8-11.6-13.7h109.1c1.2 0 2.1-.2 2.1-1.3v-38.6c0-1.1-.8-1.3-2.1-1.3h-31.9v-24.5h34.5c3.1 0 16.8.9 21.2 18.4 1.4 5.4 4.4 22.9 6.4 28.5 2.1 6.3 10.4 18.8 19.3 18.8h54.3c.6 0 1.3-.1 2-.2-3.8 5.1-7.9 10-12.4 14.5l-23-4.9zm-150.8 34.7c-5.9 1.3-11.6-2.5-12.9-8.3-1.3-5.9 2.5-11.6 8.3-12.9 5.9-1.3 11.6 2.5 12.9 8.3 1.3 5.9-2.4 11.7-8.3 12.9zM130 204.4c2.4 5.5 0 11.9-5.5 14.3-5.5 2.4-11.9 0-14.3-5.5-2.4-5.5 0-11.9 5.5-14.3 5.5-2.5 11.9 0 14.3 5.5zm-12.7 30.1l23.3-10.4c5-2.2 7.2-8.1 5-13.1l-4.8-10.9h18.9v85.2h-38.2c-3.3-11.6-5.1-23.9-5.1-36.6.2-4.7.4-9.5.9-14.2zm102.5-8.3v-25.1h45c2.3 0 16.4 2.7 16.4 13.2 0 8.8-10.8 11.9-19.7 11.9h-41.7zm163.6 22.6c0 3.3-.1 6.6-.4 9.9h-13.7c-1.4 0-1.9.9-1.9 2.2v6.3c0 14.8-8.3 18-15.7 18.8-7 .8-14.7-2.9-15.6-7.2-4.1-23.1-11-28-21.8-36.6 13.4-8.5 27.4-21.1 27.4-37.9 0-18.2-12.5-29.6-20.9-35.2-11.9-7.9-25.1-9.4-28.7-9.4H150.6c19.2-21.4 45.2-36.6 74.7-42.1l16.7 17.5c3.8 4 10 4.1 14 .3l18.7-17.9c39.1 7.3 72.3 31.6 91.4 65.1l-12.8 28.9c-2.2 5 0 10.8 5 13.1l24.6 10.9c.3 4.4.5 8.9.5 13.3zm-141.5-146c4.3-4.1 11.2-4 15.3.4 4.1 4.3 4 11.2-.4 15.3-4.3 4.1-11.2 4-15.3-.4-4-4.3-3.9-11.2.4-15.3zm126.9 102.1c2.4-5.5 8.8-8 14.3-5.5 5.5 2.4 7.9 8.8 5.5 14.3-2.4 5.5-8.8 8-14.3 5.5-5.4-2.4-7.9-8.8-5.5-14.3z"/></svg>