<?xml version="1.0" standalone="no"?>
<!DOCTYPE svg PUBLIC "-//W3C//DTD SVG 20010904//EN"
 "http://www.w3.org/TR/2001/REC-SVG-20010904/DTD/svg10.dtd">
<svg version="1.0" xmlns="http://www.w3.org/2000/svg"
 width="988.000000pt" height="988.000000pt" viewBox="0 0 988.000000 988.000000"
 preserveAspectRatio="xMidYMid meet">
<metadata>
Created by potrace 1.14, written by Peter Selinger 2001-2017
</metadata>
<g transform="translate(0.000000,988.000000) scale(0.100000,-0.100000)"
fill="#000000" stroke="none">
<path d="M5087 8942 c-44 -73 -486 -841 -522 -907 -15 -27 -33 -57 -39 -65 -7
-8 -18 -28 -26 -45 -8 -16 -22 -41 -31 -55 -9 -14 -96 -164 -194 -335 -273
-473 -436 -757 -456 -790 -10 -16 -24 -41 -32 -55 -25 -46 -219 -384 -287
-500 -74 -128 -287 -495 -317 -550 -25 -44 -81 -140 -93 -160 -11 -16 -53 -91
-92 -161 -24 -43 -80 -139 -98 -169 -9 -15 -103 -178 -138 -240 -11 -19 -86
-150 -167 -290 -81 -140 -161 -280 -178 -310 -16 -30 -33 -59 -37 -65 -5 -5
-52 -86 -105 -180 -108 -188 -118 -206 -165 -285 -18 -30 -45 -77 -60 -105
-15 -27 -66 -117 -114 -198 -47 -82 -97 -167 -109 -190 -21 -36 -86 -150 -150
-260 -11 -18 -29 -50 -40 -72 -12 -22 -24 -42 -27 -45 -3 -3 -10 -14 -16 -25
-6 -11 -138 -240 -293 -508 -154 -269 -281 -493 -281 -498 0 -5 -4 -9 -10 -9
-5 0 -10 -4 -10 -10 0 -5 -22 -47 -48 -92 -50 -86 -344 -596 -380 -658 -10
-19 -49 -86 -86 -149 -36 -62 -66 -117 -66 -121 0 -5 -3 -10 -7 -12 -5 -2 -18
-22 -31 -46 l-23 -42 1374 0 1373 0 23 43 c25 48 35 64 74 124 15 24 25 43 21
43 -4 0 0 8 8 18 9 9 29 41 44 70 43 79 49 88 63 106 7 9 10 16 5 16 -5 0 -4
4 2 8 13 9 89 145 86 154 -1 5 2 8 6 8 5 0 22 25 37 55 16 30 33 55 37 55 4 0
7 3 6 8 -3 13 25 62 35 62 6 0 8 3 4 6 -3 3 5 23 18 44 13 21 21 41 18 44 -4
3 -1 6 6 6 7 0 19 15 27 32 8 18 28 56 45 83 16 28 32 57 36 65 4 8 9 17 12
20 9 8 52 83 58 103 3 9 9 17 14 17 5 0 9 4 9 9 0 4 22 46 50 92 27 46 55 96
61 112 6 15 15 27 20 27 5 0 8 3 7 8 -1 4 17 41 42 82 111 190 196 338 210
365 8 17 18 32 21 35 3 3 19 30 36 60 17 30 68 120 115 200 46 80 87 152 91
160 4 8 17 31 28 50 12 19 58 98 103 175 44 77 89 154 98 170 10 17 24 41 30
55 7 14 15 27 18 30 3 3 10 14 16 25 60 110 106 188 122 208 8 9 12 17 8 17
-4 0 7 20 24 44 16 25 30 47 30 50 0 4 20 39 43 79 37 60 158 270 227 391 23
42 119 207 130 226 24 40 95 166 99 175 2 6 12 21 21 35 9 14 29 45 42 70 14
25 86 149 159 275 73 127 139 243 148 258 9 16 21 36 26 45 6 9 27 47 48 84
21 37 43 70 48 74 5 3 7 10 4 15 -4 5 -1 9 4 9 6 0 11 4 11 10 0 5 19 42 43
82 122 207 230 483 272 693 19 93 36 197 42 245 8 81 9 435 1 510 -21 180 -59
357 -110 510 -12 36 -23 67 -23 70 -1 3 -6 16 -12 30 -6 14 -19 45 -29 70 -56
142 -181 360 -294 510 -82 110 -85 113 -210 240 -126 128 -220 206 -350 293
-47 32 -90 61 -96 65 -50 35 -51 35 -87 -26z"/>
<path d="M6535 6317 c-121 -210 -225 -391 -232 -402 -7 -11 -17 -29 -23 -40
-6 -11 -21 -38 -34 -60 -125 -216 -166 -288 -166 -296 0 -5 -4 -9 -10 -9 -5 0
-10 -4 -10 -10 0 -5 -18 -39 -40 -75 -22 -36 -40 -67 -40 -70 0 -3 -18 -34
-40 -70 -22 -36 -40 -68 -40 -71 0 -3 -15 -29 -33 -57 -18 -29 -44 -72 -57
-97 -13 -25 -26 -47 -29 -50 -4 -3 -12 -16 -18 -30 -7 -14 -26 -47 -42 -75
-16 -27 -36 -61 -44 -75 -7 -14 -23 -41 -34 -60 -11 -19 -52 -91 -92 -160 -39
-69 -76 -132 -81 -140 -6 -8 -15 -26 -21 -40 -5 -13 -13 -27 -17 -30 -6 -4
-18 -25 -66 -115 -6 -11 -13 -22 -16 -25 -5 -5 -17 -25 -57 -99 -14 -25 -32
-53 -39 -62 -8 -8 -14 -19 -14 -23 0 -4 -22 -45 -50 -92 -27 -47 -50 -89 -50
-94 0 -6 -4 -10 -10 -10 -5 0 -10 -4 -10 -9 0 -5 -32 -64 -72 -132 -39 -68
-79 -137 -88 -154 -10 -16 -52 -89 -94 -162 -42 -73 -76 -137 -76 -143 0 -5
-3 -10 -8 -10 -4 0 -18 -21 -32 -47 -13 -27 -47 -86 -75 -133 -28 -47 -65
-110 -82 -140 -44 -81 -57 -104 -63 -110 -10 -10 -45 -83 -42 -88 2 -2 -3 -9
-11 -15 -8 -7 -23 -28 -33 -47 -11 -19 -23 -38 -27 -41 -5 -3 -7 -8 -5 -10 1
-3 -16 -36 -39 -74 -23 -39 -104 -180 -182 -315 -77 -135 -145 -250 -151 -257
-5 -7 -10 -19 -10 -28 0 -8 -3 -15 -8 -15 -4 0 -18 -21 -32 -47 -14 -27 -45
-82 -71 -123 -25 -42 -52 -90 -60 -108 -7 -17 -17 -32 -21 -32 -5 0 -8 -4 -8
-9 0 -5 -22 -47 -50 -94 -27 -47 -50 -90 -50 -96 0 -6 -3 -11 -7 -11 -5 0 -13
-10 -19 -23 -24 -50 -68 -122 -76 -125 -4 -2 -8 -11 -8 -20 0 -8 -6 -23 -13
-31 -34 -39 -217 -373 -211 -383 4 -7 3 -8 -5 -4 -6 4 -14 0 -18 -11 -4 -10
-17 -35 -30 -56 l-23 -37 1375 0 c1206 0 1375 2 1375 15 0 8 4 15 9 15 5 0 12
8 15 18 4 9 17 35 31 57 13 22 32 57 42 77 10 21 21 38 25 38 5 0 8 6 8 14 0
7 7 19 15 26 9 7 14 19 11 27 -3 7 -1 13 4 13 5 0 21 21 35 48 53 97 89 157
97 160 4 2 6 7 3 12 -3 4 2 13 10 20 8 7 15 17 15 22 0 6 9 23 21 39 11 16 17
34 13 41 -4 7 -4 10 1 6 8 -8 24 14 71 100 14 26 39 70 55 97 16 28 32 58 35
67 4 10 10 18 15 18 5 0 9 5 9 11 0 6 9 24 21 40 11 16 17 29 12 29 -4 0 -3 4
3 8 6 4 25 34 43 67 18 33 37 65 42 71 5 6 6 14 2 17 -3 4 -1 7 4 7 6 0 21 19
33 43 33 63 44 83 59 101 7 9 10 16 5 16 -5 0 -4 4 1 8 12 8 85 130 85 141 0
5 7 14 15 21 8 7 12 16 9 21 -3 5 -1 9 3 9 8 0 13 7 48 76 11 21 23 41 26 44
4 3 9 15 13 28 4 12 12 22 18 22 6 0 8 9 5 20 -3 10 -1 18 5 17 5 -1 20 18 33
43 13 25 29 51 35 58 6 7 16 26 22 42 5 17 14 30 18 30 5 0 18 21 31 48 12 26
25 49 29 52 3 3 11 16 18 30 6 14 21 41 33 60 39 67 53 95 51 103 -1 4 2 7 8
7 11 0 44 60 33 60 -5 0 0 5 10 11 9 6 15 14 12 20 -4 5 -2 9 4 9 5 0 15 16
22 35 7 19 16 35 19 35 4 0 17 23 30 50 13 28 27 50 31 50 4 0 11 10 15 23 3
12 13 30 22 40 8 9 12 17 8 17 -4 0 4 15 17 33 30 39 62 99 59 110 -1 4 2 7 7
7 5 0 13 10 17 23 4 12 17 38 29 57 12 19 26 46 30 60 4 14 16 37 27 53 11 15
16 27 12 27 -3 0 -2 6 4 13 6 6 11 15 11 20 0 4 8 23 16 43 8 20 15 40 15 44
0 4 7 21 16 39 9 18 14 41 11 52 -3 10 -1 17 3 14 7 -5 19 18 26 50 1 6 7 30
14 55 20 77 32 134 35 155 1 11 5 30 9 43 4 12 9 43 11 70 2 26 5 47 6 47 2 0
6 31 14 110 13 141 8 357 -11 495 -3 19 -7 51 -9 70 -2 19 -4 35 -5 35 -1 0
-3 9 -4 20 -2 11 -6 34 -10 50 -3 17 -8 39 -11 50 -16 72 -36 152 -42 165 -4
8 -8 20 -8 25 -1 6 -7 22 -13 36 -6 15 -16 46 -22 70 -7 24 -15 49 -19 54 -4
6 -15 29 -24 52 -137 354 -427 729 -750 971 -40 29 -79 59 -87 65 -12 10 -118
78 -155 100 -6 3 -105 -157 -230 -376z m470 -3516 c3 -5 2 -12 -3 -15 -5 -3
-9 1 -9 9 0 17 3 19 12 6z m-555 -75 c0 -3 -4 -8 -10 -11 -5 -3 -10 -1 -10 4
0 6 5 11 10 11 6 0 10 -2 10 -4z m560 -6 c0 -5 -5 -10 -11 -10 -5 0 -7 5 -4
10 3 6 8 10 11 10 2 0 4 -4 4 -10z m-965 -399 c3 -5 2 -12 -3 -15 -5 -3 -9 1
-9 9 0 17 3 19 12 6z m5 -81 c0 -5 -5 -10 -11 -10 -5 0 -7 5 -4 10 3 6 8 10
11 10 2 0 4 -4 4 -10z m235 -69 c3 -5 2 -12 -3 -15 -5 -3 -9 1 -9 9 0 17 3 19
12 6z m-720 -160 c3 -5 2 -12 -3 -15 -5 -3 -9 1 -9 9 0 17 3 19 12 6z m-78
-256 c0 -8 -4 -12 -9 -9 -5 3 -6 10 -3 15 9 13 12 11 12 -6z m-2 -75 c3 -5 1
-10 -4 -10 -6 0 -11 5 -11 10 0 6 2 10 4 10 3 0 8 -4 11 -10z m-398 -315 c0
-8 -4 -12 -9 -9 -5 3 -6 10 -3 15 9 13 12 11 12 -6z m-77 -5 c0 -5 -5 -10 -11
-10 -5 0 -7 5 -4 10 3 6 8 10 11 10 2 0 4 -4 4 -10z m320 0 c0 -5 -5 -10 -11
-10 -5 0 -7 5 -4 10 3 6 8 10 11 10 2 0 4 -4 4 -10z m-710 -156 c0 -8 -19 -13
-24 -6 -3 5 1 9 9 9 8 0 15 -2 15 -3z m-10 -78 c0 -3 -4 -8 -10 -11 -5 -3 -10
-1 -10 4 0 6 5 11 10 11 6 0 10 -2 10 -4z m-80 -326 c0 -5 -2 -10 -4 -10 -3 0
-8 5 -11 10 -3 6 -1 10 4 10 6 0 11 -4 11 -10z m77 -5 c0 -8 -4 -12 -9 -9 -5
3 -6 10 -3 15 9 13 12 11 12 -6z"/>
<path d="M8382 4437 c-5 -7 -13 -22 -16 -34 -4 -13 -11 -23 -15 -23 -4 0 -13
-16 -21 -35 -8 -19 -16 -35 -20 -35 -3 0 -16 -22 -29 -50 -13 -27 -27 -50 -31
-50 -8 0 -23 -39 -21 -52 1 -5 -3 -8 -7 -8 -5 0 -20 -21 -33 -47 -13 -27 -30
-54 -36 -61 -7 -7 -13 -18 -13 -24 0 -5 -9 -22 -19 -37 -11 -15 -21 -34 -23
-42 -2 -8 -8 -18 -15 -24 -6 -5 -25 -37 -42 -69 -17 -33 -35 -64 -40 -70 -5
-6 -21 -35 -36 -64 -15 -29 -31 -55 -36 -58 -5 -3 -7 -10 -4 -15 4 -5 2 -9 -3
-9 -4 0 -16 -15 -25 -32 -9 -18 -28 -51 -42 -73 -14 -22 -28 -47 -32 -55 -4
-8 -25 -46 -48 -85 -22 -38 -44 -77 -48 -85 -8 -15 -14 -25 -54 -89 -12 -19
-20 -38 -17 -43 3 -4 1 -8 -4 -8 -5 0 -20 -21 -33 -47 -13 -27 -27 -49 -31
-51 -4 -2 -17 -24 -29 -50 -13 -26 -25 -49 -29 -52 -3 -3 -12 -20 -19 -37 -8
-18 -18 -33 -23 -33 -5 0 -6 -4 -3 -10 3 -5 3 -10 -2 -10 -4 0 -13 -10 -19
-23 -24 -48 -59 -112 -65 -117 -16 -14 -77 -139 -71 -145 4 -5 2 -5 -4 -2 -6
4 -20 -13 -33 -38 -12 -25 -26 -47 -32 -50 -5 -4 -9 -15 -9 -25 0 -10 -4 -20
-8 -22 -8 -3 -58 -85 -63 -103 -1 -5 -9 -16 -16 -23 -7 -7 -13 -20 -13 -28 0
-8 -4 -14 -8 -14 -8 0 -27 -33 -31 -55 -1 -5 -10 -18 -18 -27 -9 -10 -12 -18
-7 -18 5 0 4 -4 -2 -8 -16 -10 -75 -118 -69 -126 3 -3 2 -4 -1 -1 -4 2 -22
-21 -40 -53 -19 -31 -38 -64 -44 -72 -6 -8 -13 -22 -17 -30 -3 -8 -15 -27 -25
-42 -10 -14 -18 -34 -18 -44 0 -9 -3 -15 -6 -11 -4 3 -15 -10 -25 -31 -22 -43
-23 -46 -7 -36 7 4 8 3 4 -5 -4 -6 -11 -9 -15 -7 -4 3 -14 -7 -22 -22 -7 -15
-22 -39 -32 -54 -10 -16 -15 -28 -10 -28 4 0 4 -4 -2 -8 -5 -4 -16 -17 -22
-30 -32 -56 -39 -67 -50 -80 -7 -7 -13 -18 -13 -24 0 -5 -9 -21 -20 -36 -16
-20 -18 -27 -8 -34 10 -6 10 -8 -2 -8 -15 0 -66 -77 -62 -92 1 -5 -3 -8 -9 -8
-5 0 -7 -4 -4 -10 3 -5 2 -10 -3 -10 -5 0 -15 -12 -22 -27 -8 -16 -22 -40 -32
-54 -10 -14 -15 -29 -11 -33 3 -3 1 -6 -5 -6 -10 0 -28 -38 -24 -52 1 -5 -2
-8 -7 -8 -5 0 -23 -24 -39 -52 -77 -139 -127 -223 -134 -226 -5 -2 -6 -7 -3
-12 2 -4 -4 -18 -15 -30 -11 -13 -20 -25 -20 -26 0 -2 498 -4 1107 -4 1034 0
1108 2 1127 18 20 16 20 16 7 0 -12 -17 1 -18 246 -16 l260 1 34 64 c19 34 38
63 43 63 4 0 6 9 3 20 -3 13 0 20 9 20 13 0 18 12 15 32 0 5 3 8 8 8 15 0 22
33 9 43 -9 6 -8 7 5 3 11 -4 20 1 25 12 8 20 94 164 102 172 3 3 6 12 8 20 2
8 10 22 18 31 8 9 11 19 7 22 -3 4 -1 7 6 7 7 0 9 5 6 10 -3 6 -1 10 5 10 6 0
8 5 5 10 -3 6 -1 10 5 10 6 0 9 4 6 9 -4 5 -3 11 1 13 16 7 65 126 58 138 -5
9 -4 11 4 6 11 -7 33 32 24 46 -2 5 0 8 6 8 5 0 13 15 16 32 4 18 11 38 15 43
4 6 11 26 15 45 4 19 10 40 13 45 8 12 13 34 15 58 1 9 5 17 10 17 5 0 7 6 4
14 -3 7 -1 18 4 23 5 5 11 30 12 55 1 25 6 43 11 40 5 -3 7 2 3 10 -3 9 -3 19
1 22 3 4 7 12 8 19 21 135 24 168 20 176 -4 5 -3 12 2 15 5 3 9 27 11 53 1 26
3 60 5 76 2 15 -1 30 -6 33 -5 4 -5 10 0 17 15 18 6 274 -13 377 -3 19 -8 51
-9 70 -2 19 -5 37 -6 40 -4 10 -7 25 -8 54 -2 22 -6 27 -19 22 -16 -5 -16 -4
-2 6 14 10 14 17 -3 77 -11 36 -21 73 -23 81 -2 8 -4 16 -5 18 -2 1 -3 5 -4
10 -8 41 -30 102 -37 102 -5 0 -5 7 -2 17 5 12 3 14 -7 8 -9 -5 -11 -4 -6 4 8
13 -14 81 -27 81 -4 0 -6 3 -3 8 2 4 -6 30 -19 57 -13 28 -24 56 -24 63 -1 6
-5 12 -11 12 -5 0 -10 8 -10 18 -1 20 -24 54 -33 46 -3 -3 -3 3 -1 13 3 11 -2
25 -10 32 -9 8 -16 20 -16 27 0 8 -5 14 -11 14 -5 0 -8 4 -5 8 7 12 -23 54
-35 47 -5 -3 -6 0 -4 7 3 8 -6 29 -20 48 -14 19 -25 39 -25 45 0 6 -8 18 -17
26 -10 9 -25 26 -33 39 -8 13 -23 32 -32 42 -10 10 -18 20 -18 23 0 5 -34 47
-62 77 -10 10 -18 22 -18 27 0 5 -9 13 -20 16 -11 3 -20 11 -20 16 0 16 -27
39 -35 31 -5 -4 -5 -2 -2 4 11 19 -246 244 -379 331 -33 22 -88 58 -116 75
-20 13 -28 14 -36 5z m-137 -357 c3 -5 1 -10 -4 -10 -6 0 -11 5 -11 10 0 6 2
10 4 10 3 0 8 -4 11 -10z m120 -360 c3 -5 1 -10 -4 -10 -6 0 -11 5 -11 10 0 6
2 10 4 10 3 0 8 -4 11 -10z m1120 -768 c-3 -3 -11 0 -18 7 -9 10 -8 11 6 5 10
-3 15 -9 12 -12z m-835 -36 c0 -2 -8 -10 -17 -17 -16 -13 -17 -12 -4 4 13 16
21 21 21 13z m320 -130 c0 -2 -7 -7 -16 -10 -8 -3 -12 -2 -9 4 6 10 25 14 25
6z m74 -32 c3 -8 2 -12 -4 -9 -6 3 -10 10 -10 16 0 14 7 11 14 -7z m-321 -29
c-3 -9 -8 -14 -10 -11 -3 3 -2 9 2 15 9 16 15 13 8 -4z m22 -194 c3 -5 2 -12
-3 -15 -5 -3 -9 1 -9 9 0 17 3 19 12 6z m150 -11 c-3 -5 -12 -10 -18 -10 -7 0
-6 4 3 10 19 12 23 12 15 0z m-710 -149 c3 -5 2 -12 -3 -15 -5 -3 -9 1 -9 9 0
17 3 19 12 6z m740 -19 c-3 -3 -11 0 -18 7 -9 10 -8 11 6 5 10 -3 15 -9 12
-12z m-284 -119 c13 -16 12 -17 -3 -4 -10 7 -18 15 -18 17 0 8 8 3 21 -13z
m-1270 -190 c13 -16 12 -17 -3 -4 -17 13 -22 21 -14 21 2 0 10 -8 17 -17z
m877 -8 c-3 -3 -9 2 -12 12 -6 14 -5 15 5 6 7 -7 10 -15 7 -18z m-758 11 c0
-3 -4 -8 -10 -11 -5 -3 -10 -1 -10 4 0 6 5 11 10 11 6 0 10 -2 10 -4z m480
-122 c0 -8 -19 -13 -24 -6 -3 5 1 9 9 9 8 0 15 -2 15 -3z m394 -54 c-6 -6 -10
-3 -10 10 0 13 4 16 10 10 7 -7 7 -13 0 -20z m-959 11 c3 -5 2 -12 -3 -15 -5
-3 -9 1 -9 9 0 17 3 19 12 6z m1796 -8 c13 -16 12 -17 -3 -4 -10 7 -18 15 -18
17 0 8 8 3 21 -13z m-901 -67 c0 -2 -8 -10 -17 -17 -16 -13 -17 -12 -4 4 13
16 21 21 21 13z m-366 -124 c2 -4 -4 -8 -14 -8 -10 0 -16 4 -14 8 3 4 9 8 14
8 5 0 11 -4 14 -8z m1316 -36 c0 -2 -7 -7 -16 -10 -8 -3 -12 -2 -9 4 6 10 25
14 25 6z m-2515 -286 c3 -6 -1 -7 -9 -4 -18 7 -21 14 -7 14 6 0 13 -4 16 -10z
m1553 -45 c-3 -3 -9 2 -12 12 -6 14 -5 15 5 6 7 -7 10 -15 7 -18z m-1198 7 c0
-5 -7 -9 -15 -9 -8 0 -12 4 -9 9 3 4 9 8 15 8 5 0 9 -4 9 -8z m1400 -202 c0
-5 -2 -10 -4 -10 -3 0 -8 5 -11 10 -3 6 -1 10 4 10 6 0 11 -4 11 -10z m-1527
-75 c-3 -9 -8 -14 -10 -11 -3 3 -2 9 2 15 9 16 15 13 8 -4z m411 -3 c2 -4 -4
-8 -14 -8 -10 0 -16 4 -14 8 3 4 9 8 14 8 5 0 11 -4 14 -8z m470 -128 c3 -8 2
-12 -4 -9 -6 3 -10 10 -10 16 0 14 7 11 14 -7z m361 6 c3 -5 1 -10 -4 -10 -6
0 -11 5 -11 10 0 6 2 10 4 10 3 0 8 -4 11 -10z m-515 -64 c0 -2 -8 -10 -17
-17 -16 -13 -17 -12 -4 4 13 16 21 21 21 13z m-769 -23 c13 -16 12 -17 -3 -4
-17 13 -22 21 -14 21 2 0 10 -8 17 -17z"/>
</g>
</svg>
